<?xml version="1.0" encoding="utf-8"?>
<!-- Generator: Adobe Illustrator 25.2.0, SVG Export Plug-In . SVG Version: 6.00 Build 0)  -->
<svg version="1.1" xmlns="http://www.w3.org/2000/svg" xmlns:xlink="http://www.w3.org/1999/xlink" x="0px" y="0px"
	 viewBox="0 0 578.3 578.3" style="enable-background:new 0 0 578.3 578.3;" xml:space="preserve">
<style type="text/css">
	.st0{display:none;}
	.st1{display:inline;fill:#007B2E;stroke:#000000;stroke-miterlimit:10;}
	.st2{display:inline;fill:#0097A2;}
	.st3{fill:#E63946;}
</style>
<g id="Layer_2" class="st0">
	<rect x="-25" y="-9" class="st1" width="719" height="649"/>
</g>
<g id="Layer_1">
	<g id="Layer_2_1_" class="st0">
		<rect x="-34" y="-31" class="st2" width="674" height="636"/>
	</g>
	<g>
		<path class="st3" d="M547.8,203.2c-9.5-13.6-14.8-25.1-14.5-42.8c0.5-26.5-5.3-53.3-10-79.7c-1.6-9.1-4.9-17.9-8.2-26.5
			c-2.4-6.5-9.7-10.6-16.3-9.2c-4.3,0.9-8.2,1.8-11.9,3c-39.3,12.9-75.7,31.9-110.7,53.8c-4.7,2.9-11.5,4-17.2,3.6
			c-13.6-1-27-4.4-40.6-5c-33.6-1.6-67.1-0.6-100.4,5.3c-4.6,0.8-10.7,0-14.6-2.5c-38.1-24.7-77.8-45.8-122.5-57.7
			c-6.7-1.8-13.6-0.8-15.3,1.8c-1,1.6-2,3.3-2.5,5.1c-4.8,16.9-10.5,33.8-13.3,51.1c-3.3,20.7-6.6,41.9-5,62.6c1,13-2.6,20.9-9.7,30
			C11.4,226.8,0.7,261.9,0,300.4c-0.6,32.9,3.8,65,13.8,96.5c15.4,48.2,45,84.4,89.7,108c36.7,19.4,76.7,26.8,117.6,28.3
			c36.9,1.3,73.9,0.2,110.8,0.4c37,0.2,73.5-3.1,108.9-14.6s66.1-30.2,89.9-59.5c34.4-42.3,45.1-92.2,47.3-145
			C579.7,274.1,571.5,236.2,547.8,203.2z M462,469.6c-15.9,13.7-35.3,20.2-55.2,25c-39,9.3-78.7,11.6-118.5,9.9
			c-39.4,1.7-78.3-0.7-116.6-9.8c-28.3-6.6-54.1-17.8-72-42.1C71.1,414,63.8,340.5,111.1,300.5c12.1-10.2,25.5-16.7,41.4-17.7
			c17.5-1.1,35.1-3.3,52.6-3.1c44.2,0.5,88.4,2.7,132.6,3.1c20.2,0.1,40.5-4.6,60.5-3.3c18.2,1.1,37.4,4.5,53.9,11.8
			c27.5,12.2,42.4,37,46.9,66C505.6,400.3,496.8,439.6,462,469.6z"/>
	</g>
	<ellipse class="st3" cx="390" cy="385.6" rx="42.1" ry="56.3"/>
	<ellipse class="st3" cx="189" cy="385.6" rx="42.1" ry="56.3"/>
</g>
</svg>
