<?xml version="1.0" encoding="utf-8"?>
<!-- Generator: Adobe Illustrator 25.2.0, SVG Export Plug-In . SVG Version: 6.00 Build 0)  -->
<svg version="1.1" id="Layer_1" xmlns="http://www.w3.org/2000/svg" xmlns:xlink="http://www.w3.org/1999/xlink" x="0px" y="0px"
	 viewBox="0 0 512 512" style="enable-background:new 0 0 512 512;" xml:space="preserve">
<style type="text/css">
	.st0{fill:#FFFFFF;}
</style>
<g>
	<path class="st0" d="M477.6,102.3c-23.1-26-51.2-39.2-83.5-39.2c-29,0-53.5,10.3-73,30.7c-19.4,20.2-29.2,45.3-29.2,74.6
		c0,27.7,9.9,52.4,29.5,73.4c17.2,18.5,39,30.3,64.7,35.1c-4.5,34.1-34.6,65-89.8,91.8l-9.9,4.8l40.7,75.1l9.2-4.7
		C452.9,385,512,301.5,512,195.9C512,159.5,500.4,128,477.6,102.3z"/>
	<path class="st0" d="M106.8,63.2c-29,0-53.5,10.3-72.7,30.7c-19.1,20.2-28.7,45.3-28.7,74.6c0,27.7,9.9,52.4,29.5,73.4
		c17.2,18.5,38.7,30.2,63.9,35.1c-4.4,34.1-34.3,65-89,91.9L0,373.6l39.7,75.2l9.3-4.7C166.1,385,225.5,301.5,225.5,195.9
		c0-36.5-11.7-68-34.8-93.6C167.2,76.3,139,63.2,106.8,63.2z"/>
</g>
</svg>
