<?xml version="1.0" encoding="utf-8"?>
<!-- Generator: Adobe Illustrator 25.2.1, SVG Export Plug-In . SVG Version: 6.00 Build 0)  -->
<svg version="1.1" xmlns="http://www.w3.org/2000/svg" xmlns:xlink="http://www.w3.org/1999/xlink" x="0px" y="0px"
	 viewBox="0 0 184 134.78" style="enable-background:new 0 0 184 134.78;" xml:space="preserve">
<style type="text/css">
	.st0{fill:#FFFFFF;}
	.st1{fill:#E63946;}
</style>
<g id="Layer_2">
</g>
<g id="Capa_1">
	<g>
		<path class="st1" d="M91.13,66.42c0.26,0.2,0.56,0.3,0.87,0.3s0.61-0.1,0.87-0.3l65.11-50.3c0.48-0.37,0.67-1.01,0.48-1.58
			c-0.2-0.57-0.74-0.96-1.34-0.96H26.89c-0.61,0-1.15,0.39-1.34,0.96c-0.2,0.57,0,1.21,0.48,1.58L91.13,66.42z"/>
		<path class="st1" d="M169.62,23.5c-0.49-0.24-1.06-0.18-1.49,0.15L95.72,79.59c-1.06,0.82-2.38,1.27-3.72,1.27
			c-1.36,0-2.65-0.44-3.72-1.27L15.87,23.65c-0.43-0.33-1.01-0.39-1.49-0.15c-0.48,0.24-0.79,0.73-0.79,1.27v86.75
			c0,5.33,4.34,9.67,9.67,9.67h137.49c5.33,0,9.67-4.34,9.67-9.67V24.77C170.42,24.23,170.11,23.74,169.62,23.5z"/>
	</g>
</g>
</svg>
